<?xml version="1.0" encoding="utf-8"?>
<!-- Generator: Adobe Illustrator 21.0.2, SVG Export Plug-In . SVG Version: 6.00 Build 0)  -->
<!DOCTYPE svg PUBLIC "-//W3C//DTD SVG 1.1//EN" "http://www.w3.org/Graphics/SVG/1.1/DTD/svg11.dtd">
<svg version="1.1" id="Layer_1" xmlns="http://www.w3.org/2000/svg" xmlns:xlink="http://www.w3.org/1999/xlink" x="0px" y="0px"
	 width="131px" height="50px" viewBox="0 0 131 50" style="enable-background:new 0 0 131 50;" xml:space="preserve">
<style type="text/css">
	.st0{fill:#FF5722;}
	.st1{fill:#FFFFFF;}
</style>
<polygon class="st0" points="83.5,0 84.5,4.1 88.7,3.8 85.2,6.1 86.7,10.1 83.5,7.4 80.2,10.1 81.7,6.1 78.2,3.8 82.4,4.1 "/>
<g>
	<path class="st1" d="M76,20.6c-0.4,2.4-0.8,4.7-1.2,7c-0.4,2.5-0.9,5-1.3,7.5c-0.5,3-1.1,6-1.7,9c-0.4,2-1.6,3.3-3.2,4.3
		c-1.3,0.8-2.7,1.2-4.1,1.4c-1.6,0.2-3.2,0.3-4.7,0.1c-1.2-0.1-2.4-0.4-3.5-0.9c-1.3-0.6-1.8-1.7-1.9-3c0-0.6,0-1.2,0.1-1.8
		c0-0.1,0.1-0.2,0.2-0.2c2.3,0,4.7,0,7,0c0,0,0.1,0,0.1,0c0,0.3,0,0.6,0,0.9c0.1,0.4,0.3,0.7,0.8,0.7c0.8,0.1,1.4-0.2,1.7-1
		c0.3-0.9,0.4-1.8,0.6-2.7c0.1-0.2,0.1-0.5,0.1-0.8c-0.2,0.1-0.3,0.2-0.5,0.3c-1,0.7-2,1.2-3.3,1.4c-1.2,0.2-2.3,0.1-3.4-0.3
		c-1.5-0.6-2.3-1.8-2.3-3.5c0-1.4,0.3-2.7,0.5-4.1c0.4-2.4,0.8-4.7,1.3-7.1c0.2-1.4,0.5-2.7,1.1-4c1.1-2.5,3.1-3.6,5.8-3.5
		c1.6,0.1,2.9,0.8,3.8,2.1c0,0.1,0.1,0.1,0.2,0.2c0.3-0.5,0.5-1,0.7-1.5c0.1-0.3,0.3-0.3,0.6-0.3c2.1,0,4.2,0,6.3,0
		C75.7,20.6,75.8,20.6,76,20.6z M63.1,37.4c0,0.4,0,0.8,0.5,1c0.4,0.2,1,0.1,1.3-0.3c0.2-0.2,0.3-0.5,0.4-0.7
		c0.2-0.8,0.4-1.5,0.5-2.3c0.5-2.6,0.9-5.3,1.4-7.9c0.1-0.5,0.2-1.1,0.2-1.6c0-0.7-0.4-1.1-1.1-0.9c-0.5,0.1-0.8,0.4-1,0.9
		c-0.2,0.6-0.4,1.2-0.5,1.8c-0.4,2.4-0.9,4.8-1.3,7.1C63.4,35.4,63.3,36.4,63.1,37.4z"/>
	<path class="st1" d="M34,45.6c0.2-0.9,0.3-1.8,0.5-2.7c0.4-2.4,0.8-4.8,1.3-7.2c0.5-2.7,1-5.5,1.5-8.2c0.4-2.2,0.8-4.4,1.2-6.7
		c0-0.2,0-0.3,0.3-0.3c2.5,0,4.9,0,7.4,0c0,0,0,0,0.1,0c-0.2,0.7-0.3,1.4-0.5,2c0.3-0.2,0.6-0.5,0.9-0.8c1.7-1.6,3.8-2.1,6-1.6
		c1.8,0.4,2.7,1.9,2.6,3.8c-0.1,1.9-0.5,3.8-0.8,5.8c-0.4,2.2-0.8,4.5-1.2,6.7c-0.4,2.2-0.8,4.4-1.2,6.6c-0.1,0.7-0.3,1.4-0.4,2.1
		c0,0.2-0.1,0.2-0.3,0.2c-2.4,0-4.8,0-7.2,0c0,0-0.1,0-0.1,0c0.1-0.6,0.2-1.3,0.3-1.9c0.4-2.5,0.9-5,1.3-7.5c0.4-2.5,0.9-5,1.3-7.4
		c0.2-1,0.3-2.1,0.5-3.1c0.1-0.7,0-0.9-0.5-1.1c-0.6-0.2-1.2,0-1.5,0.5c-0.2,0.4-0.3,0.9-0.4,1.4c-0.4,2-0.7,3.9-1.1,5.9
		c-0.5,2.6-0.9,5.2-1.4,7.8c-0.3,1.7-0.6,3.4-0.9,5.2c0,0.2-0.1,0.3-0.3,0.3c-2.4,0-4.8,0-7.2,0C34.1,45.7,34.1,45.7,34,45.6z"/>
	<path class="st1" d="M74.3,45.6c0.1-0.6,0.2-1.3,0.3-1.9c0.4-2.4,0.8-4.8,1.3-7.2c0.5-2.6,0.9-5.2,1.4-7.8c0.5-2.6,0.9-5.2,1.4-7.8
		c0-0.2,0-0.3,0.3-0.3c2.5,0,4.9,0,7.4,0c0,0,0,0,0.1,0c-0.2,0.7-0.3,1.4-0.5,2c0.3-0.2,0.6-0.5,0.8-0.7c1.7-1.6,3.7-2.1,6-1.6
		c1.8,0.4,2.7,1.9,2.6,3.8c-0.1,1.9-0.5,3.8-0.8,5.7c-0.4,2.2-0.8,4.5-1.2,6.7c-0.4,2.2-0.8,4.5-1.2,6.7c-0.1,0.7-0.3,1.4-0.4,2.1
		c0,0.2-0.1,0.3-0.3,0.3c-2.4,0-4.8,0-7.2,0c0,0-0.1,0-0.2,0c0.1-0.7,0.2-1.3,0.3-2c0.4-2.4,0.8-4.7,1.3-7.1c0.4-2.3,0.8-4.7,1.2-7
		c0.2-1.3,0.4-2.5,0.6-3.8c0.1-0.7,0-0.9-0.4-1.1c-0.6-0.2-1.3,0-1.5,0.5c-0.2,0.5-0.4,1.1-0.5,1.7c-0.4,2.2-0.8,4.5-1.2,6.7
		c-0.5,2.6-0.9,5.3-1.4,7.9c-0.2,1.3-0.5,2.6-0.7,4c0,0.2-0.1,0.3-0.3,0.3c-2.4,0-4.8,0-7.2,0C74.4,45.7,74.4,45.7,74.3,45.6z"/>
	<path class="st1" d="M23.9,45.6c0.1-0.7,0.2-1.4,0.3-2c0,0,0,0-0.1,0c-0.1,0.1-0.1,0.1-0.2,0.2c-0.9,1.2-2.1,2.1-3.7,2.3
		c-1.4,0.2-2.7,0-3.9-0.6c-1.1-0.6-1.5-1.5-1.6-2.7c-0.1-1.4,0.2-2.7,0.4-4c0.2-1,0.4-1.9,0.7-2.9c0.3-1,1-1.8,2-2.3
		c1.5-0.8,3.2-1.4,4.8-2c1-0.4,1.9-0.8,2.9-1.2c0.4-0.2,0.7-0.5,0.8-1c0.3-1.1,0.5-2.2,0.6-3.4c0-0.1,0-0.2,0-0.3c0-0.6-0.3-1-0.8-1
		c-0.6-0.1-1.2,0.2-1.3,0.8c-0.3,0.9-0.4,1.9-0.6,2.8c-0.1,0.6-0.2,1.2-0.3,1.8c0,0.3-0.2,0.3-0.4,0.3c-1.6,0-3.1,0-4.7,0
		c-0.6,0-1.1,0-1.7,0c-0.1,0-0.2,0-0.4,0c0.1-0.5,0.1-0.9,0.2-1.3c0.2-1,0.5-2.1,0.8-3.1c0.6-2.1,2.1-3.5,4-4.5
		c1.6-0.8,3.3-1.1,5-1.1c1.5,0,3,0,4.4,0.6c1.6,0.6,2.8,1.6,3.1,3.3c0.2,0.8,0.1,1.7,0,2.5c-0.4,4.3-1.3,8.4-2,12.6
		c-0.4,2.1-0.7,4.1-1.1,6.2c0,0.2-0.1,0.3-0.3,0.3c-2.3,0-4.7,0-7,0C24.1,45.7,24,45.7,23.9,45.6z M25.8,33.8
		C25.8,33.8,25.7,33.8,25.8,33.8c-0.4,0.2-0.7,0.4-1,0.6c-0.6,0.5-1.2,0.9-1.6,1.6c-0.7,1.5-0.9,3.1-1,4.7c0,0.3,0.1,0.6,0.4,0.8
		c0.6,0.4,1.5,0.1,1.8-0.6c0.1-0.3,0.2-0.7,0.3-1c0.3-1.8,0.6-3.5,1-5.3C25.7,34.4,25.7,34.1,25.8,33.8z"/>
	<path class="st1" d="M113.7,35.3c-0.3,1.7-0.5,3.4-1.1,5c-1.2,3-3.4,4.9-6.7,5.6c-2,0.4-4.1,0.4-6.1-0.2c-1.8-0.5-3.2-1.5-3.8-3.3
		c-0.4-1-0.5-2-0.3-2.9c0.4-2.8,0.9-5.7,1.4-8.5c0.3-1.5,0.5-3,1-4.4c1.1-3.6,3.7-5.6,7.3-6.2c1.9-0.3,3.8-0.3,5.6,0.3
		c2,0.7,3.4,1.9,3.8,4c0.2,1,0.3,2.1,0.1,3.1c-0.2,1.8-0.6,3.6-0.8,5.4c0,0.3-0.2,0.4-0.5,0.4c-2.9,0-5.9,0-8.8,0
		c-0.1,0-0.1,0-0.2,0c-0.5,0-0.5,0-0.6,0.5c-0.3,1.9-0.7,3.9-1,5.8c-0.1,0.4-0.1,0.7,0,1.1c0,0.5,0.3,0.7,0.8,0.7
		c0.7,0.1,1.3-0.2,1.5-0.9c0.3-0.7,0.5-1.5,0.6-2.2c0.2-1,0.4-2.1,0.6-3.1c0-0.1,0.2-0.2,0.2-0.2C109,35.2,111.3,35.2,113.7,35.3
		C113.6,35.2,113.6,35.3,113.7,35.3z M104.8,29.5c0.8,0,1.5,0,2.2,0c0.1,0,0.2-0.1,0.2-0.2c0.1-0.3,0.1-0.6,0.2-1c0.1-1,0.3-2,0.4-3
		c0-0.5-0.3-0.8-0.8-0.8c-0.6,0-1,0.2-1.2,0.9C105.3,26.8,105.1,28.1,104.8,29.5z"/>
	<path class="st1" d="M13.3,15.1c-1.4,8.1-2.9,16.3-4.3,24.4c1.6,0,3.2,0,4.8,0c-0.1,0.6-0.2,1.2-0.3,1.7c-0.2,1.4-0.5,2.7-0.7,4.1
		c0,0.2-0.1,0.3-0.3,0.3c-4.1,0-8.2,0-12.3,0c0,0-0.1,0-0.2,0c0.1-0.5,0.1-0.9,0.2-1.4c0.5-2.8,1-5.6,1.5-8.3c0.5-2.7,1-5.5,1.5-8.2
		c0.5-2.7,1-5.5,1.4-8.2c0.2-1.4,0.5-2.8,0.7-4.2c0-0.1,0.2-0.2,0.2-0.2c2.5,0,5,0,7.6,0C13.2,15.1,13.2,15.1,13.3,15.1z"/>
	<path class="st1" d="M114.4,45.6c0.1-0.8,0.3-1.5,0.4-2.3c0.4-2.5,0.9-5,1.3-7.5c0.4-2.5,0.9-4.9,1.3-7.4c0.4-2.4,0.8-4.7,1.3-7.1
		c0.1-0.8-0.1-0.7,0.8-0.7c2.2,0,4.4,0,6.5,0c0.1,0,0.2,0,0.4,0c-0.3,1-0.5,2.1-0.8,3.1c1.4-1.8,2.9-3.3,5.4-3.5
		c-0.1,0.7-0.2,1.4-0.4,2.1c-0.4,2.1-0.8,4.2-1.1,6.3c0,0.3-0.2,0.4-0.4,0.4c-0.6,0-1.2,0.1-1.8,0.2c-1.6,0.4-2.5,1.4-2.8,3
		c-0.4,2-0.8,4-1.1,5.9c-0.4,2.4-0.9,4.9-1.3,7.3c0,0.1-0.2,0.2-0.2,0.2C119.3,45.7,116.9,45.7,114.4,45.6
		C114.4,45.7,114.4,45.6,114.4,45.6z"/>
</g>
<path class="st0" d="M77.6,5.8l-0.7,1.9c-0.8,0-1.7,0-2.5,0c-4.3,0-8.6,0.1-12.8,0.4c-4.3,0.3-8.5,0.7-12.8,1.2l-1.6,0.2l-1.6,0.2
	c-1.1,0.1-2.1,0.3-3.2,0.5c-2.1,0.3-4.2,0.7-6.3,1.1c-4.2,0.8-8.4,1.8-12.5,3c4-1.6,8.1-2.8,12.3-3.9c4.2-1.1,8.4-1.9,12.7-2.6
	c4.3-0.7,8.6-1.2,12.9-1.6L64.6,6c1.1-0.1,2.2-0.1,3.2-0.2C68.9,5.8,70,5.8,71,5.8l1.6,0c0.5,0,1.1,0,1.6,0
	C75.4,5.7,76.4,5.7,77.6,5.8C77.5,5.8,77.5,5.8,77.6,5.8z"/>
<path class="st0" d="M125.1,14.4c-8.3-2.2-16.7-3.9-25.2-5.1L96.7,9c-0.5-0.1-1.1-0.1-1.6-0.2l-1.6-0.2c-1.1-0.1-2.1-0.2-3.2-0.3
	l-0.4,0l-0.6-1.9l1.2,0.1c1.1,0.1,2.1,0.3,3.2,0.4c2.2,0.2,4.3,0.6,6.4,0.9C108.6,9.3,117,11.4,125.1,14.4z"/>
</svg>
